<?xml version="1.0" encoding="UTF-8" ?>
<svg version="1.1" width="112" height="112" xmlns="http://www.w3.org/2000/svg" shape-rendering="crispEdges">
<rect x="50" y="21" width="14" height="2" fill="#2E222F" />
<rect x="49" y="22" width="1" height="2" fill="#2E222F" />
<rect x="64" y="22" width="1" height="2" fill="#2E222F" />
<rect x="48" y="23" width="1" height="2" fill="#2E222F" />
<rect x="50" y="23" width="10" height="1" fill="#FBFF86" />
<rect x="60" y="23" width="3" height="1" fill="#FFFFFF" />
<rect x="63" y="23" width="1" height="1" fill="#FBFF86" />
<rect x="65" y="23" width="1" height="2" fill="#2E222F" />
<rect x="47" y="24" width="1" height="3" fill="#2E222F" />
<rect x="49" y="24" width="3" height="1" fill="#FBFF86" />
<rect x="52" y="24" width="6" height="11" fill="#FFD930" />
<rect x="58" y="24" width="4" height="1" fill="#FBFF86" />
<rect x="62" y="24" width="2" height="1" fill="#FFFFFF" />
<rect x="64" y="24" width="1" height="1" fill="#FBFF86" />
<rect x="66" y="24" width="1" height="2" fill="#2E222F" />
<rect x="46" y="25" width="1" height="3" fill="#2E222F" />
<rect x="48" y="25" width="1" height="1" fill="#FBFF86" />
<rect x="49" y="25" width="3" height="15" fill="#FFD930" />
<rect x="58" y="25" width="3" height="12" fill="#FFD930" />
<rect x="61" y="25" width="2" height="1" fill="#FBFF86" />
<rect x="63" y="25" width="2" height="1" fill="#FFFFFF" />
<rect x="65" y="25" width="1" height="2" fill="#FBFF86" />
<rect x="67" y="25" width="1" height="2" fill="#2E222F" />
<rect x="48" y="26" width="1" height="41" fill="#FFD930" />
<rect x="61" y="26" width="2" height="15" fill="#FFD930" />
<rect x="63" y="26" width="1" height="1" fill="#FBFF86" />
<rect x="64" y="26" width="1" height="1" fill="#FFFFFF" />
<rect x="66" y="26" width="1" height="1" fill="#9E4539" />
<rect x="68" y="26" width="1" height="3" fill="#2E222F" />
<rect x="45" y="27" width="1" height="3" fill="#2E222F" />
<rect x="47" y="27" width="1" height="39" fill="#FFD930" />
<rect x="63" y="27" width="1" height="24" fill="#FFD930" />
<rect x="64" y="27" width="1" height="1" fill="#FBFF86" />
<rect x="65" y="27" width="1" height="1" fill="#FFFFFF" />
<rect x="66" y="27" width="1" height="1" fill="#FBFF86" />
<rect x="67" y="27" width="1" height="1" fill="#9E4539" />
<rect x="69" y="27" width="1" height="24" fill="#2E222F" />
<rect x="44" y="28" width="1" height="4" fill="#2E222F" />
<rect x="46" y="28" width="1" height="37" fill="#FFD930" />
<rect x="64" y="28" width="1" height="23" fill="#FFD930" />
<rect x="65" y="28" width="1" height="2" fill="#FBFF86" />
<rect x="66" y="28" width="1" height="1" fill="#FFFFFF" />
<rect x="67" y="28" width="1" height="5" fill="#FBFF86" />
<rect x="66" y="29" width="1" height="2" fill="#FBFF86" />
<rect x="68" y="29" width="1" height="20" fill="#9E4539" />
<rect x="70" y="29" width="1" height="21" fill="#2E222F" />
<rect x="43" y="30" width="1" height="4" fill="#2E222F" />
<rect x="45" y="30" width="1" height="34" fill="#FFD930" />
<rect x="65" y="30" width="1" height="20" fill="#FFD930" />
<rect x="66" y="31" width="1" height="18" fill="#FFD930" />
<rect x="42" y="32" width="1" height="4" fill="#2E222F" />
<rect x="44" y="32" width="1" height="30" fill="#FFD930" />
<rect x="67" y="33" width="1" height="1" fill="#FFD930" />
<rect x="41" y="34" width="1" height="4" fill="#2E222F" />
<rect x="43" y="34" width="1" height="26" fill="#FFD930" />
<rect x="67" y="34" width="1" height="1" fill="#FBFF86" />
<rect x="52" y="35" width="3" height="1" fill="#FFD930" />
<rect x="55" y="35" width="2" height="2" fill="#9E4539" />
<rect x="57" y="35" width="1" height="1" fill="#FFD930" />
<rect x="67" y="35" width="1" height="1" fill="#FFD930" />
<rect x="40" y="36" width="1" height="27" fill="#2E222F" />
<rect x="42" y="36" width="1" height="22" fill="#FFD930" />
<rect x="52" y="36" width="2" height="1" fill="#FFD930" />
<rect x="54" y="36" width="1" height="2" fill="#9E4539" />
<rect x="57" y="36" width="1" height="2" fill="#9E4539" />
<rect x="67" y="36" width="1" height="1" fill="#FBFF86" />
<rect x="52" y="37" width="1" height="1" fill="#FFD930" />
<rect x="53" y="37" width="1" height="2" fill="#9E4539" />
<rect x="55" y="37" width="2" height="3" fill="#2E222F" />
<rect x="58" y="37" width="1" height="2" fill="#9E4539" />
<rect x="59" y="37" width="2" height="1" fill="#FFD930" />
<rect x="67" y="37" width="1" height="11" fill="#FFD930" />
<rect x="39" y="38" width="1" height="22" fill="#2E222F" />
<rect x="41" y="38" width="1" height="22" fill="#F9C22B" />
<rect x="52" y="38" width="1" height="2" fill="#9E4539" />
<rect x="54" y="38" width="1" height="3" fill="#2E222F" />
<rect x="57" y="38" width="1" height="3" fill="#2E222F" />
<rect x="59" y="38" width="1" height="2" fill="#9E4539" />
<rect x="60" y="38" width="1" height="1" fill="#FFD930" />
<rect x="53" y="39" width="1" height="24" fill="#2E222F" />
<rect x="58" y="39" width="1" height="3" fill="#2E222F" />
<rect x="60" y="39" width="1" height="1" fill="#9E4539" />
<rect x="49" y="40" width="2" height="28" fill="#FFD930" />
<rect x="51" y="40" width="1" height="22" fill="#9E4539" />
<rect x="52" y="40" width="1" height="22" fill="#2E222F" />
<rect x="59" y="40" width="2" height="3" fill="#2E222F" />
<rect x="61" y="41" width="1" height="13" fill="#2E222F" />
<rect x="62" y="41" width="1" height="10" fill="#FFD930" />
<rect x="60" y="43" width="1" height="11" fill="#2E222F" />
<rect x="67" y="48" width="1" height="2" fill="#9E4539" />
<rect x="66" y="49" width="1" height="2" fill="#9E4539" />
<rect x="68" y="49" width="1" height="3" fill="#2E222F" />
<rect x="65" y="50" width="1" height="2" fill="#9E4539" />
<rect x="67" y="50" width="1" height="3" fill="#2E222F" />
<rect x="62" y="51" width="3" height="1" fill="#9E4539" />
<rect x="66" y="51" width="1" height="3" fill="#2E222F" />
<rect x="62" y="52" width="4" height="2" fill="#2E222F" />
<rect x="60" y="56" width="6" height="2" fill="#2E222F" />
<rect x="66" y="57" width="2" height="2" fill="#2E222F" />
<rect x="42" y="58" width="1" height="4" fill="#F9C22B" />
<rect x="60" y="58" width="2" height="4" fill="#2E222F" />
<rect x="62" y="58" width="3" height="1" fill="#FBFF86" />
<rect x="65" y="58" width="1" height="1" fill="#2E222F" />
<rect x="68" y="58" width="1" height="2" fill="#2E222F" />
<rect x="62" y="59" width="3" height="3" fill="#FFD930" />
<rect x="65" y="59" width="2" height="1" fill="#FBFF86" />
<rect x="67" y="59" width="1" height="1" fill="#2E222F" />
<rect x="69" y="59" width="1" height="2" fill="#2E222F" />
<rect x="41" y="60" width="1" height="5" fill="#2E222F" />
<rect x="43" y="60" width="1" height="4" fill="#F9C22B" />
<rect x="65" y="60" width="2" height="1" fill="#FFD930" />
<rect x="67" y="60" width="1" height="1" fill="#FBFF86" />
<rect x="68" y="60" width="1" height="1" fill="#9E4539" />
<rect x="70" y="60" width="1" height="2" fill="#2E222F" />
<rect x="65" y="61" width="3" height="14" fill="#F9C22B" />
<rect x="68" y="61" width="1" height="1" fill="#FBFF86" />
<rect x="69" y="61" width="1" height="1" fill="#9E4539" />
<rect x="71" y="61" width="1" height="18" fill="#2E222F" />
<rect x="42" y="62" width="1" height="4" fill="#2E222F" />
<rect x="44" y="62" width="1" height="3" fill="#F9C22B" />
<rect x="51" y="62" width="1" height="1" fill="#FBFF86" />
<rect x="52" y="62" width="1" height="1" fill="#9E4539" />
<rect x="54" y="62" width="1" height="3" fill="#2E222F" />
<rect x="59" y="62" width="2" height="1" fill="#2E222F" />
<rect x="61" y="62" width="2" height="1" fill="#FFD930" />
<rect x="63" y="62" width="2" height="16" fill="#F9C22B" />
<rect x="68" y="62" width="1" height="12" fill="#F9C22B" />
<rect x="69" y="62" width="1" height="1" fill="#FBFF86" />
<rect x="70" y="62" width="1" height="14" fill="#9E4539" />
<rect x="72" y="62" width="1" height="15" fill="#2E222F" />
<rect x="51" y="63" width="1" height="5" fill="#FFD930" />
<rect x="52" y="63" width="1" height="1" fill="#FFFFFF" />
<rect x="53" y="63" width="1" height="1" fill="#9E4539" />
<rect x="55" y="63" width="1" height="3" fill="#2E222F" />
<rect x="58" y="63" width="2" height="1" fill="#2E222F" />
<rect x="60" y="63" width="1" height="1" fill="#FBFF86" />
<rect x="61" y="63" width="2" height="17" fill="#F9C22B" />
<rect x="69" y="63" width="1" height="10" fill="#F9C22B" />
<rect x="43" y="64" width="1" height="3" fill="#2E222F" />
<rect x="45" y="64" width="1" height="2" fill="#F9C22B" />
<rect x="52" y="64" width="1" height="3" fill="#FFD930" />
<rect x="53" y="64" width="1" height="1" fill="#FFFFFF" />
<rect x="57" y="64" width="2" height="1" fill="#2E222F" />
<rect x="59" y="64" width="1" height="1" fill="#FBFF86" />
<rect x="60" y="64" width="1" height="16" fill="#F9C22B" />
<rect x="44" y="65" width="1" height="3" fill="#2E222F" />
<rect x="46" y="65" width="1" height="2" fill="#F9C22B" />
<rect x="53" y="65" width="1" height="2" fill="#FFD930" />
<rect x="54" y="65" width="1" height="1" fill="#FFFFFF" />
<rect x="56" y="65" width="2" height="1" fill="#2E222F" />
<rect x="58" y="65" width="1" height="1" fill="#FBFF86" />
<rect x="59" y="65" width="1" height="15" fill="#F9C22B" />
<rect x="45" y="66" width="1" height="3" fill="#2E222F" />
<rect x="47" y="66" width="1" height="2" fill="#F9C22B" />
<rect x="54" y="66" width="1" height="18" fill="#F9C22B" />
<rect x="55" y="66" width="3" height="1" fill="#FBFF86" />
<rect x="58" y="66" width="1" height="14" fill="#F9C22B" />
<rect x="46" y="67" width="1" height="3" fill="#2E222F" />
<rect x="48" y="67" width="1" height="2" fill="#F9C22B" />
<rect x="52" y="67" width="2" height="17" fill="#F9C22B" />
<rect x="55" y="67" width="3" height="13" fill="#F9C22B" />
<rect x="47" y="68" width="1" height="3" fill="#2E222F" />
<rect x="49" y="68" width="3" height="2" fill="#F9C22B" />
<rect x="48" y="69" width="1" height="3" fill="#2E222F" />
<rect x="49" y="70" width="1" height="10" fill="#2E222F" />
<rect x="50" y="70" width="2" height="1" fill="#F9C22B" />
<rect x="50" y="71" width="1" height="8" fill="#2E222F" />
<rect x="51" y="71" width="1" height="13" fill="#F9C22B" />
<rect x="69" y="73" width="1" height="5" fill="#9E4539" />
<rect x="68" y="74" width="1" height="5" fill="#9E4539" />
<rect x="65" y="75" width="2" height="1" fill="#F9C22B" />
<rect x="67" y="75" width="1" height="5" fill="#9E4539" />
<rect x="65" y="76" width="1" height="1" fill="#F9C22B" />
<rect x="66" y="76" width="1" height="5" fill="#9E4539" />
<rect x="70" y="76" width="1" height="4" fill="#2E222F" />
<rect x="65" y="77" width="1" height="5" fill="#9E4539" />
<rect x="63" y="78" width="1" height="1" fill="#F9C22B" />
<rect x="64" y="78" width="1" height="5" fill="#9E4539" />
<rect x="69" y="78" width="1" height="3" fill="#2E222F" />
<rect x="48" y="79" width="1" height="10" fill="#2E222F" />
<rect x="50" y="79" width="1" height="5" fill="#F9C22B" />
<rect x="63" y="79" width="1" height="5" fill="#9E4539" />
<rect x="68" y="79" width="1" height="3" fill="#2E222F" />
<rect x="47" y="80" width="1" height="8" fill="#2E222F" />
<rect x="49" y="80" width="1" height="3" fill="#F9C22B" />
<rect x="55" y="80" width="2" height="2" fill="#F9C22B" />
<rect x="57" y="80" width="6" height="4" fill="#9E4539" />
<rect x="67" y="80" width="1" height="3" fill="#2E222F" />
<rect x="66" y="81" width="1" height="3" fill="#2E222F" />
<rect x="55" y="82" width="1" height="1" fill="#F9C22B" />
<rect x="56" y="82" width="1" height="4" fill="#9E4539" />
<rect x="65" y="82" width="1" height="3" fill="#2E222F" />
<rect x="49" y="83" width="1" height="3" fill="#9E4539" />
<rect x="55" y="83" width="1" height="4" fill="#9E4539" />
<rect x="64" y="83" width="1" height="3" fill="#2E222F" />
<rect x="50" y="84" width="5" height="3" fill="#9E4539" />
<rect x="57" y="84" width="1" height="1" fill="#9E4539" />
<rect x="58" y="84" width="6" height="3" fill="#2E222F" />
<rect x="57" y="85" width="1" height="3" fill="#2E222F" />
<rect x="49" y="86" width="1" height="4" fill="#2E222F" />
<rect x="56" y="86" width="1" height="3" fill="#2E222F" />
<rect x="50" y="87" width="1" height="3" fill="#2E222F" />
<rect x="51" y="87" width="4" height="1" fill="#9E4539" />
<rect x="55" y="87" width="1" height="3" fill="#2E222F" />
<rect x="51" y="88" width="4" height="3" fill="#2E222F" />
</svg>